<svg xmlns="http://www.w3.org/2000/svg" viewBox="6446.03 2390.234 1529.298 1045.056"><g fill="#ffb703" transform="translate(-18790.133 -18112.975)scale(4.76073)"><circle cx="5506.82" cy="4316.67" r="9.567" transform="matrix(1.49075 0 0 1 -2601.423 0)"/><path d="M5569.95 4325.24c-7.07 0-12.78-3.85-12.78-8.57 0-4.74 5.71-8.58 12.78-8.58 6.96 0 12.77 3.84 12.77 8.58 0 4.72-5.81 8.57-12.77 8.57"/><circle cx="139.4" cy="15.5" r="7.578" transform="matrix(.57572 -.92242 1.3751 .3862 5430.34 4439.254)"/><circle cx="5430.38" cy="4316.67" r="6.709" transform="matrix(1.49075 0 0 1 -2601.423 0)"/><path d="M5456.01 4322.4c-4.68 0-8.56-2.59-8.56-5.73 0-3.07 3.88-5.69 8.56-5.69 4.58 0 8.45 2.62 8.45 5.69 0 3.14-3.87 5.73-8.45 5.73m-38.01-1.01c-3.88 0-7.07-2.12-7.07-4.72s3.19-4.74 7.07-4.74c3.87 0 7.03 2.14 7.03 4.74s-3.16 4.72-7.03 4.72m-38.2-.87c-3.08 0-5.74-1.73-5.74-3.85 0-2.13 2.66-3.85 5.74-3.85 3.18 0 5.83 1.72 5.83 3.85 0 2.12-2.65 3.85-5.83 3.85m-37.92-1.02c-2.39 0-4.23-1.24-4.23-2.83 0-1.6 1.84-2.84 4.23-2.84 2.38 0 4.22 1.24 4.22 2.84 0 1.59-1.84 2.83-4.22 2.83"/><circle cx="5302.89" cy="4316.67" r="1.987" transform="matrix(1.49075 0 0 1 -2601.423 0)"/><circle cx="5506.82" cy="4345.24" r="9.567" transform="matrix(1.49075 0 0 1 -2601.423 0)"/><path d="M5569.95 4353.7c-7.07 0-12.78-3.85-12.78-8.57 0-4.74 5.71-8.59 12.78-8.59 6.96 0 12.77 3.85 12.77 8.59 0 4.72-5.81 8.57-12.77 8.57"/><circle cx="139.4" cy="38.5" r="7.578" transform="matrix(1.26502 -.52907 .78872 .84858 5325.273 4386.316)"/><circle cx="5430.38" cy="4345.24" r="6.709" transform="matrix(1.49075 0 0 1 -2601.423 0)"/><path d="M5456.01 4350.98c-4.68 0-8.56-2.6-8.56-5.74 0-3.07 3.88-5.67 8.56-5.67 4.58 0 8.45 2.6 8.45 5.67 0 3.14-3.87 5.74-8.45 5.74"/><circle cx="5379.45" cy="4345.24" r="4.721" transform="matrix(1.49075 0 0 1 -2601.423 0)"/><path d="M5379.8 4348.96c-3.08 0-5.74-1.71-5.74-3.83 0-2.07 2.66-3.85 5.74-3.85 3.18 0 5.83 1.78 5.83 3.85 0 2.23-2.65 3.83-5.83 3.83m-37.92-.82c-2.39 0-4.23-1.25-4.23-2.9 0-1.6 1.84-2.84 4.23-2.84 2.38 0 4.22 1.24 4.22 2.84 0 1.65-1.84 2.9-4.22 2.9"/><circle cx="5302.89" cy="4345.24" r="1.987" transform="matrix(1.49075 0 0 1 -2601.423 0)"/><circle cx="5506.82" cy="4373.7" r="9.567" transform="matrix(1.49075 0 0 1 -2601.423 0)"/><path d="M5569.95 4382.27c-7.07 0-12.78-3.85-12.78-8.57 0-4.67 5.71-8.57 12.78-8.57 6.96 0 12.77 3.9 12.77 8.57 0 4.72-5.81 8.57-12.77 8.57"/><circle cx="139.4" cy="61.4" r="7.578" transform="matrix(.57572 -.92242 1.3751 .3862 5367.207 4478.577)"/><circle cx="5430.38" cy="4373.7" r="6.709" transform="matrix(1.49075 0 0 1 -2601.423 0)"/><path d="M5456.01 4379.44c-4.68 0-8.56-2.61-8.56-5.74 0-3.09 3.88-5.68 8.56-5.68 4.58 0 8.45 2.59 8.45 5.68 0 3.25-3.87 5.74-8.45 5.74m-38.01-1.02c-3.88 0-7.07-2.12-7.07-4.72 0-2.61 3.19-4.67 7.07-4.67 3.87 0 7.03 2.06 7.03 4.67 0 2.6-3.16 4.72-7.03 4.72m-38.2-.87c-3.08 0-5.74-1.73-5.74-3.85 0-2.07 2.66-3.85 5.74-3.85 3.18 0 5.83 1.78 5.83 3.85 0 2.12-2.65 3.85-5.83 3.85m-37.92-.96c-2.39 0-4.23-1.24-4.23-2.89 0-1.6 1.84-2.85 4.23-2.85 2.38 0 4.22 1.25 4.22 2.85 0 1.65-1.84 2.89-4.22 2.89"/><circle cx="5302.89" cy="4373.7" r="1.987" transform="matrix(1.49075 0 0 1 -2601.423 0)"/><circle cx="5506.82" cy="4402.27" r="9.567" transform="matrix(1.49075 0 0 1 -2601.423 0)"/><path d="M5569.95 4410.85c-7.07 0-12.78-3.84-12.78-8.58 0-4.67 5.71-8.57 12.78-8.57 6.96 0 12.77 3.9 12.77 8.57 0 4.74-5.81 8.58-12.77 8.58m-38.01-.95c-6.27 0-11.29-3.36-11.29-7.63 0-4.2 5.02-7.57 11.29-7.57 6.26 0 11.28 3.37 11.28 7.57 0 4.14-5.02 7.63-11.28 7.63"/><circle cx="5430.38" cy="4402.27" r="6.709" transform="matrix(1.49075 0 0 1 -2601.423 0)"/><path d="M5456.01 4408.01c-4.68 0-8.56-2.6-8.56-5.74 0-3.07 3.88-5.68 8.56-5.68 4.58 0 8.45 2.61 8.45 5.68 0 3.14-3.87 5.74-8.45 5.74m-38.01-1c-3.88 0-7.07-2.07-7.07-4.74 0-2.6 3.19-4.67 7.07-4.67 3.87 0 7.03 2.07 7.03 4.67 0 2.67-3.16 4.74-7.03 4.74m-38.2-1.02c-3.08 0-5.74-1.7-5.74-3.83 0-2.07 2.66-3.85 5.74-3.85 3.18 0 5.83 1.78 5.83 3.85 0 2.24-2.65 3.83-5.83 3.83m-37.92-.81c-2.39 0-4.23-1.25-4.23-2.91 0-1.6 1.84-2.83 4.23-2.83 2.38 0 4.22 1.23 4.22 2.83 0 1.66-1.84 2.91-4.22 2.91"/><circle cx="5302.89" cy="4402.27" r="1.987" transform="matrix(1.49075 0 0 1 -2601.423 0)"/><circle cx="5506.82" cy="4430.73" r="9.567" transform="matrix(1.49075 0 0 1 -2601.423 0)"/><path d="M5569.95 4439.31c-7.07 0-12.78-3.85-12.78-8.58 0-4.68 5.71-8.52 12.78-8.52 6.96 0 12.77 3.84 12.77 8.52 0 4.73-5.81 8.58-12.77 8.58m-38.01-.95c-6.27 0-11.29-3.38-11.29-7.63 0-4.2 5.02-7.57 11.29-7.57 6.26 0 11.28 3.37 11.28 7.57 0 4.25-5.02 7.63-11.28 7.63"/><circle cx="5430.38" cy="4430.73" r="6.709" transform="matrix(1.49075 0 0 1 -2601.423 0)"/><path d="M5456.01 4436.47c-4.68 0-8.56-2.61-8.56-5.74 0-3.08 3.88-5.68 8.56-5.68 4.58 0 8.45 2.6 8.45 5.68 0 3.25-3.87 5.74-8.45 5.74m-38.01-.89c-3.88 0-7.07-2.07-7.07-4.74 0-2.6 3.19-4.67 7.07-4.67 3.87 0 7.03 2.07 7.03 4.67 0 2.67-3.16 4.74-7.03 4.74m-38.2-.94c-3.08 0-5.74-1.78-5.74-3.91 0-2.07 2.66-3.85 5.74-3.85 3.18 0 5.83 1.78 5.83 3.85 0 2.13-2.65 3.91-5.83 3.91m-37.92-1.02c-2.39 0-4.23-1.23-4.23-2.89 0-1.6 1.84-2.85 4.23-2.85 2.38 0 4.22 1.25 4.22 2.85.19 1.66-1.84 2.89-4.22 2.89"/><circle cx="5302.89" cy="4430.73" r="1.987" transform="matrix(1.49075 0 0 1 -2601.423 0)"/><circle cx="5506.82" cy="4459.36" r="9.567" transform="matrix(1.49075 0 0 1 -2601.423 0)"/><path d="M5569.95 4467.88c-7.07 0-12.78-3.85-12.78-8.52 0-4.72 5.71-8.58 12.78-8.58 6.96 0 12.77 3.86 12.77 8.58 0 4.67-5.81 8.52-12.77 8.52"/><circle cx="139.4" cy="130.3" r="7.578" transform="matrix(.57572 -.92242 1.3751 .3862 5272.517 4537.552)"/><circle cx="5430.38" cy="4459.36" r="6.709" transform="matrix(1.49075 0 0 1 -2601.423 0)"/><path d="M5456.01 4465.04c-4.68 0-8.56-2.6-8.56-5.68 0-3.13 3.88-5.74 8.56-5.74 4.58 0 8.45 2.61 8.45 5.74 0 3.08-3.87 5.68-8.45 5.68m-38.01-1.01c-3.88 0-7.07-2.06-7.07-4.67 0-2.6 3.19-4.72 7.07-4.72 3.87 0 7.03 2.12 7.03 4.72 0 2.61-3.16 4.67-7.03 4.67m-38.2-.82c-3.08 0-5.74-1.78-5.74-3.85 0-2.13 2.66-3.85 5.74-3.85 3.18 0 5.83 1.72 5.83 3.85 0 2.07-2.65 3.85-5.83 3.85m-37.92-1c-2.39 0-4.23-1.25-4.23-2.85 0-1.65 1.84-2.89 4.23-2.89 2.38 0 4.22 1.24 4.22 2.89 0 1.6-1.84 2.85-4.22 2.85"/><circle cx="5302.89" cy="4459.36" r="1.987" transform="matrix(1.49075 0 0 1 -2601.423 0)"/><circle cx="5506.82" cy="4487.82" r="9.567" transform="matrix(1.49075 0 0 1 -2601.423 0)"/><path d="M5569.95 4496.4c-7.07 0-12.78-3.91-12.78-8.58 0-4.74 5.71-8.57 12.78-8.57 6.96 0 12.77 3.83 12.77 8.57 0 4.67-5.81 8.58-12.77 8.58"/><circle cx="139.4" cy="153.2" r="7.578" transform="matrix(.57572 -.92242 1.3751 .3862 5240.935 4557.206)"/><circle cx="5430.38" cy="4487.82" r="6.709" transform="matrix(1.49075 0 0 1 -2601.423 0)"/><path d="M5456.01 4493.51c-4.68 0-8.56-2.62-8.56-5.69 0-3.14 3.88-5.74 8.56-5.74 4.58 0 8.45 2.6 8.45 5.74 0 3.2-3.87 5.69-8.45 5.69"/><circle cx="5379.45" cy="4487.82" r="4.721" transform="matrix(1.49075 0 0 1 -2601.423 0)"/><path d="M5379.8 4491.67c-3.08 0-5.74-1.78-5.74-3.85 0-2.13 2.66-3.9 5.74-3.9 3.18 0 5.83 1.77 5.83 3.9 0 2.07-2.65 3.85-5.83 3.85m-37.92-1.01c-2.39 0-4.23-1.24-4.23-2.84 0-1.65 1.84-2.9 4.23-2.9 2.38 0 4.22 1.25 4.22 2.9 0 1.6-1.84 2.84-4.22 2.84"/><circle cx="5302.89" cy="4487.82" r="1.987" transform="matrix(1.49075 0 0 1 -2601.423 0)"/><circle cx="5506.82" cy="4516.39" r="9.567" transform="matrix(1.49075 0 0 1 -2601.423 0)"/><path d="M5569.95 4524.97c-7.07 0-12.78-3.91-12.78-8.58 0-4.72 5.71-8.57 12.78-8.57 6.96 0 12.77 3.85 12.77 8.57 0 4.67-5.81 8.58-12.77 8.58"/><circle cx="139.4" cy="176.2" r="7.578" transform="matrix(.57572 -.92242 1.3751 .3862 5209.383 4576.875)"/><circle cx="5430.38" cy="4516.39" r="6.709" transform="matrix(1.49075 0 0 1 -2601.423 0)"/><path d="M5456.01 4522.08c-4.68 0-8.56-2.62-8.56-5.69 0-3.14 3.88-5.74 8.56-5.74 4.58 0 8.45 2.6 8.45 5.74 0 3.07-3.87 5.69-8.45 5.69m-38.01-1.02c-3.88 0-7.07-2.07-7.07-4.67s3.19-4.72 7.07-4.72c3.87 0 7.03 2.12 7.03 4.72s-3.16 4.67-7.03 4.67m-38.2-.82c-3.08 0-5.74-1.78-5.74-3.85 0-2.12 2.66-3.85 5.74-3.85 3.18 0 5.83 1.73 5.83 3.85 0 2.07-2.65 3.85-5.83 3.85m-37.92-1.01c-2.39 0-4.23-1.24-4.23-2.84 0-1.65 1.84-2.89 4.23-2.89 2.38 0 4.22 1.24 4.22 2.89 0 1.6-1.84 2.84-4.22 2.84"/><circle cx="5302.89" cy="4516.39" r="1.987" transform="matrix(1.49075 0 0 1 -2601.423 0)"/></g></svg>