<svg xmlns="http://www.w3.org/2000/svg" viewBox="5702.56 4244.474 2607.32 526.421"><path fill="#ff7c00" d="M8001.21 4459.02c0 11.68 20.71 6.82 22.1 13.71 5.74 9.26-7.85 10.87-4.44 20.21 95.03 7.61 192.06 14.49 286.72 33.91-17.97 6.01-34.91 13.69-51.9 9.28-28.51-7.68-58.72-8.48-87.22-10.09-60.37-4.48-120.44-16.15-181.53-14.55h-22.41c18.69 5.21 34.29 3.63 40.74 18.55-51.89 3.62-100.44-6.46-151-9.28-1.35 5.28-3.72 10.08-5.78 15.37 151.67 6.01 303.04 13.69 458.44 39.13-30.21 13.32-54.96 8.47-77.01 6.44-48.55-4.05-96.36-10.87-144.91-15.72-6.09-1.23-16.27-1.23-20.35 1.59-15.95 13.34-30.88 4.86-49.89 3.26 9.82-8.47 17.66 4.43 27.48-6.89-39.71-8.47-76.02 5.24-113.3 0-37.04-4.85-74.68-4.85-118.11-6.44 14.25 13.33 32.58 10.87 44.1 11.68 34.96 0 70.6 6.87 105.56 6.08 37.64-.81 73.95 4.05 110.26 7.67 23.08 2.4 47.82-1.23 70.6-3.62 8.1-.8 3.72 2.39 4.38 5.23 3.72 7.67 15.6 6.87 25.77 6.87 36.37-1.22 71.99 4.86 105.21 12.53 5.78.81 10.89 0 12.23 6.03 0 6.08-5.78 4.85-10.53 6.88-27.79 10.07-52.94-2.03-79.07-2.03-14.57 0-30.88-12.54-42.76 4.43-2.38 3.25-10.18.8-15.91-.81-31.91-6.88-64.81-4.42-98.43-12.89-16.27-4.06-39.71 1.23-59.69 4.42-28.52 4.05-57.02-6.03-86.2-7.69-24.43-1.59-50.56-4.42-74.99-6.01-50.61-2.46-101.17-10.07-158.86-3.26 34.97 9.27 66.88 10.14 98.44 10.14 69.2 0 136.75 19.35 205.95 13.7 51.95 27.04 113.36 12.52 169.7 24.63 34.91 6.45 71.94 6.45 108.24 10.08 3.73 0 5.79 2.4 7.8 7.67-142.54-17.75-286.41-12.1-433.33-25.43 34.96 17.76 77.05-2.82 108.91 22.61-57.02 16.16-112.32-7.68-167.27-.79 19.67 12.09 50.56 9.27 66.16 28.25 3.72 4.01 1.33 9.28-8.48 10.88 16.28 8.47 24.06-17.76 40.75-3.62 1.34-4.86 1.34-8.49 2.02-12.53 5.78-2.4 14.25 6.88 10.53 12.53-1.39 1.22 0 2.83 0 4.42 133.34 3.25 266.02 14.56 400.75 30.72-12.24 9.28-20.04 10.07-29.9 9.28-50.86-4.5-100.39-7.69-151.31-12.11-22.06-1.66-44.83-3.25-66.88-3.25-54.28-1.61-106.85-6.08-159.79-8.48-64.14-3.63-127.61-.8-191.75-.8-8.46 0-20.71-3.63-27.84 8.48 105.56 2.39 211.79 4.85 316.63 9.28 105.51 5.22 213.08 10.86 314.88 35.51-30.53 8.48-62.44 7.67-92.6 4.41-37.71-4.41-74.68-9.28-112.33-10.44-81.45-2.46-163.55-7.32-244.68-10.14-125.56-3.19-252.13-2.39-378.34-3.19-77.05-.8-154.74-1.66-231.79 0-126.88 3.19-254.49 1.6-381.38 3.99-93.32 2.82-187.37.87-280.63 4.49-79.42 2.39-159.84 4.85-239.57 8.48-93.32 4.85-185.97 1.6-280.33 3.19-27.47.79-53.97 1.66-84.12-1.59 6.45-10.08 16.63-10.88 27.79-10.88 60.05 1.6 118.47-3.69 177.49-7.68 27.84-1.66 56.34-3.62 84.85 1.6 17.98 3.26 38.01-2.4 57.32-3.26 51.91-3.63 104.53-6.02 156.8-7.61 84.79-4.5 168.61-10.14 253.46-6.88 55 1.59 109.28-5.23 163.24-.81 16.63 1.61 30.89-4.42 46.49-8.47h-125.55c-68.22 0-135.41-.81-203.94 0-57.01.8-114.7 2.39-171.04 6.88-18.34 1.59-38.37.79-58.36.79-71.94 2.41-143.21 4.86-215.15 3.99-38.68 0-76.32-.8-113.36 5.29-16.26 2.41-28.51-10.93-46.47-5.29 1.34 3.7 3.71 7.7 4.38 12.97-13.52 0-28.45 3.2-34.91-.86-29.89-18.92-66.87-12.9-100.45-19.72-12.23-2.46-26.49-.87-30.87-12.53-3.42-11.3 13.58-12.91 18.64-22.23-29.86-11.69-32.89-42.34-60.37-60.96-10.9 1.65-6.46 23.84-30.21 10.93 2.37 20.58 32.23 33.12 20.03 54.5-16.31 2.4-22.77-6.88-29.89-14.55-17.98-33.92-36.31-71.03-36.31-107.77 1.39-57.75 1.39-117.09 25.46-172.75 2.38-4.49 2.38-8.48 5.78-12.16 6.46-7.63 8.47-20.16 25.78-17.76 15.58 1.65 17.66 12.95 18.33 22.23 1.7 11.68 10.84 15.31 23.08 20.96 6.46-11.68 3.41-24.59 18.34-31.08 1.34-.81 2.37-3.63 2.37-3.63-22.41-18.56 8.46-18.56 16.26-27.84-22.04-15.36-28.51-36.36-26.49-59.35-10.48-2.39-22.05-3.63-31.86 0-12.23 4.86-15.96-4.41-20.71-8.48 4.08-4.41 5.79-9.28 15.6-10.86 54.33-7.67 108.24-14.57 163.24-16.95 142.54-6.08 284.35-7.69 426.88-8.48 84.86-1.23 169.65 3.18 253.83 9.27 25.78 1.59 50.56-7.68 76.34-4.49 56.34 7.68 112.31 2.45 169.65 4.49 51.95.8 102.51-5.29 154.4-.79 87.23 7.24 174.1 2.38 261.63 4.84 67.19 2.4 134.74 3.63 201.26 8.48 84.8 6.02 169.65 10.87 253.46 16.89 79.43 5.29 159.84 4.5 237.57 16.97 50.55 8.47 102.45 9.28 151.67 20.64 28.51 5.65 58.35 13.26 88.57 16.09 15.59 1.67 6.4 8.49 10.48 12.53-28.51-6.88-57.01-6.88-86.2-11.66-30.51-6.09-60.36-8.48-91.25 3.19-20.71 8.47-44.82 1.59-66.15-.81-72.67-9.28-146.97-13.69-219.59-20.2-86.2-7.68-173.05-12.11-259.55-18.14-70.6-4.84-142.55-4.04-213.14-8.46-81.08-4.86-161.85 0-243.66-4.07-44.77-2.39-87.84-2.39-131.99-3.63-29.85-.78-59.71 11.32-91.26 2.84 4.39 1.59 8.83 5.65 13.58 5.65 74.99 0 148.94 16.15 225.32 14.5 46.48-.8 93.32 1.65 141.15 6.87 22.71 2.41 44.77-3.24 69.25-.79 53.91 6.09 110.26 4.06 163.86 6.87 88.26 4.01 176.11 3.2 264.37 9.28 95.02 6.03 191.03 17.76 284.34 34.72 44.47 7.68 90.64 12.53 137.12 14.51 4.08 0 7.8.84 10.48 4.04-32.59.8-66.15 0-99.05-4.04-4.08 9.33 10.17 7.67 10.84 16.15-69.19 13.33-139.79-12.11-209.72-1.18 15.59 12.11 36.31 8.49 52.63 8.49 52.26 1.16 100.75 11.3 151.31 16.1 20.04 2.82 42.09 0 60.43 6.88 10.84 4.43 32.88-9.28 34.96 10.86 28.5-5.64 52.26 12.97 79.37 10.51 28.51-2.81 54.64 4.86 82.48 9.29 5.78.85 15.59 2.45 16.27 9.33 1.7 8.48-7.8 10.08-14.26 12.48-24.07 8.46-47.51-3.21-71.94-3.21-6.45 0-14.25-1.65-20.65-1.65-66.88.86-134.07-10.87-201.62-15.3-42.71-3.25-86.14-7.67-128.9-10.93 0 1.65 0 3.26-1.71 4.85 43.74 4.41 86.5 12.11 130.61 6.08" class="fill-warning"/></svg>