<?xml version="1.0" encoding="utf-8"?>
<svg xmlns="http://www.w3.org/2000/svg" viewBox="4996.407 2858.8988 2020.9383 1957.4472" width="2020.9383px" height="1957.4472px">
  <g style="" transform="matrix(4.760727882385254, 0, 0, 4.760727882385254, -18790.1328125, -18112.974609375)">
    <path fill="#ffed00" d="M 5347.95 4610.76 C 5347.95 4654.21 5331.93 4695.52 5302.83 4728.41 C 5237.88 4800.53 5126.55 4806.01 5054.44 4741.06 C 5019.45 4709.44 4999.2 4666.43 4996.67 4619.62 C 4994.13 4572.81 5010.16 4527.68 5041.79 4493.1 C 5106.73 4421 5218.06 4415.5 5290.18 4480.45 C 5325.18 4512.07 5345.43 4555.1 5347.95 4601.91 L 5347.95 4610.76 Z M 4997.93 4610.33 C 4997.93 4613.29 4997.93 4616.24 4998.36 4619.62 C 5000.88 4666.01 5021.12 4708.59 5055.71 4739.8 C 5126.97 4804.33 5237.46 4798.41 5301.98 4727.16 C 5333.18 4692.58 5349.22 4647.88 5346.68 4601.49 C 5344.16 4555.1 5323.92 4512.5 5289.33 4481.29 C 5218.06 4416.77 5107.58 4422.68 5043.06 4493.94 C 5013.54 4526.41 4997.93 4567.33 4997.93 4610.33" style=""/>
    <path fill="#ffed00" d="M 5366.08 4610.76 C 5366.08 4657.15 5348.79 4701.02 5317.17 4735.16 C 5248.42 4808.97 5132.03 4813.6 5058.24 4744.87 C 5022.39 4711.55 5001.72 4666.43 5000.05 4617.5 C 4997.93 4568.6 5015.22 4521.78 5048.54 4485.93 C 5117.28 4412.14 5233.67 4407.93 5307.46 4476.66 C 5343.32 4509.98 5363.98 4555.1 5365.66 4604.01 C 5366.08 4606.12 5366.08 4608.66 5366.08 4610.76 M 5001.3 4610.33 L 5001.3 4617.08 C 5002.99 4665.59 5023.66 4710.29 5059.07 4743.6 C 5132.45 4811.91 5247.59 4807.7 5315.9 4734.32 C 5348.79 4698.9 5366.08 4652.51 5364.41 4604.01 C 5362.71 4555.52 5342.05 4510.82 5306.62 4477.51 L 5307.05 4477.08 L 5306.62 4477.51 C 5233.25 4409.6 5118.11 4413.83 5049.8 4487.2 C 5018.18 4520.94 5001.3 4564.37 5001.3 4610.33" style=""/>
    <path fill="#ffed00" d="M 5384.23 4610.76 C 5384.23 4660.11 5365.66 4706.5 5331.51 4742.33 C 5258.97 4818.24 5137.93 4821.2 5062.03 4748.66 C 5025.35 4713.65 5004.26 4666.01 5002.99 4615.41 C 5001.72 4564.37 5020.7 4515.88 5055.71 4479.18 C 5128.24 4403.28 5249.27 4400.33 5325.18 4472.87 C 5361.87 4507.86 5382.96 4555.52 5384.23 4606.12 L 5384.23 4610.76 Z M 5004.68 4610.76 L 5004.68 4615.41 C 5005.95 4666.01 5026.62 4712.82 5063.3 4747.81 C 5138.78 4819.93 5258.55 4816.98 5330.67 4741.49 C 5365.66 4704.81 5384.23 4657.15 5382.96 4606.55 C 5381.69 4555.95 5360.6 4508.71 5324.34 4474.12 C 5248.84 4402.01 5128.67 4404.97 5056.97 4480.45 C 5022.81 4515.88 5004.68 4561.85 5004.68 4610.76" style=""/>
    <path fill="#ffed00" d="M 5402.36 4610.76 C 5402.36 4662.63 5382.53 4711.98 5345.83 4749.08 C 5269.51 4827.1 5143.85 4828.79 5065.82 4752.46 C 5027.87 4715.34 5006.8 4666.01 5006.37 4613.29 C 5005.53 4560.58 5025.77 4510.4 5062.88 4472.45 C 5139.2 4394.01 5264.88 4392.74 5342.89 4469.07 L 5342.47 4469.49 L 5342.89 4469.07 C 5380.84 4506.17 5401.93 4555.52 5402.36 4608.24 L 5402.36 4610.76 Z M 5007.62 4610.76 L 5007.62 4612.87 C 5008.05 4665.16 5029.14 4714.5 5066.67 4751.2 C 5144.26 4827.1 5269.09 4825.41 5344.58 4748.24 C 5381.27 4710.71 5401.09 4660.95 5400.66 4608.66 C 5400.24 4556.37 5379.15 4507.02 5341.62 4470.33 C 5264.03 4394.43 5139.2 4396.11 5063.72 4473.29 C 5027.45 4510.4 5007.62 4558.89 5007.62 4610.76" style=""/>
    <path fill="#ffed00" d="M 5420.91 4610.76 C 5420.91 4665.59 5399.4 4717.46 5360.6 4756.25 C 5280.49 4836.38 5149.75 4836.38 5069.63 4756.25 C 5030.83 4717.46 5009.32 4666.01 5009.32 4610.76 C 5009.32 4555.95 5030.83 4504.08 5069.63 4465.28 C 5149.75 4385.15 5280.49 4385.15 5360.6 4465.28 L 5360.18 4465.7 L 5360.6 4465.28 C 5399.4 4504.08 5420.91 4555.95 5420.91 4610.76 M 5011.01 4610.76 C 5011.01 4665.16 5032.1 4716.61 5070.89 4754.98 C 5150.6 4834.69 5280.06 4834.69 5359.33 4754.98 C 5397.72 4716.61 5419.22 4665.16 5419.22 4610.76 C 5419.22 4556.37 5398.14 4504.92 5359.33 4466.55 C 5280.06 4386.84 5150.6 4386.84 5070.89 4466.55 C 5032.1 4504.92 5011.01 4556.37 5011.01 4610.76" style=""/>
  </g>
</svg>