<svg xmlns="http://www.w3.org/2000/svg" viewBox="6397.15 3127.74 1959.988 1883.47"><path fill="#219ebc" d="M8306.53 4496.95c15.54 0 27.2 12.95 27.2 28.5 0 15.54-12.95 28.5-27.2 28.5-15.54 0-27.2-12.96-27.2-28.5-1.3-15.55 11.66-28.5 27.2-28.5m-476.7 0c15.55 0 27.21 12.95 27.21 28.5 0 15.54-12.96 28.5-27.21 28.5-15.54 0-27.2-12.96-27.2-28.5 0-15.55 11.66-28.5 27.2-28.5m238.35 0c15.55 0 27.2 12.95 27.2 28.5 0 15.54-12.95 28.5-27.2 28.5-15.54 0-27.2-12.96-27.2-28.5 0-15.55 11.66-28.5 27.2-28.5m3.89-227.99c15.54 0 27.2 12.96 27.2 28.5 0 15.55-12.95 28.5-27.2 28.5-15.55 0-27.21-12.95-27.21-28.5 0-15.54 11.66-28.5 27.21-28.5m238.35 0c15.54 0 27.2 12.96 27.2 28.5 0 15.55-12.95 28.5-27.2 28.5-15.55 0-27.21-12.95-27.21-28.5-1.29-15.54 11.66-28.5 27.21-28.5m-715.05 0c15.54 0 27.2 12.96 27.2 28.5 0 15.55-12.95 28.5-27.2 28.5-15.54 0-27.2-12.95-27.2-28.5 0-15.54 11.66-28.5 27.2-28.5"/><ellipse cx="7833.72" cy="4297.46" fill="#219ebc" rx="27.203" ry="28.498"/><path fill="#219ebc" d="M8306.53 4954.22c15.54 0 27.2 12.95 27.2 28.49 0 15.55-12.95 28.5-27.2 28.5-15.54 0-27.2-12.95-27.2-28.5-1.3-16.84 11.66-28.49 27.2-28.49m-234.46-227.99c15.54 0 27.2 12.95 27.2 28.5 0 15.54-12.95 28.5-27.2 28.5-15.55 0-27.21-12.96-27.21-28.5 0-16.84 11.66-28.5 27.21-28.5m238.35 0c15.54 0 27.2 12.95 27.2 28.5 0 15.54-12.95 28.5-27.2 28.5-15.55 0-27.21-12.96-27.21-28.5-1.29-16.84 11.66-28.5 27.21-28.5m-949.51-685.25c15.54 0 27.2 12.95 27.2 28.5 0 15.54-12.95 28.5-27.2 28.5-15.55 0-27.2-12.96-27.2-28.5 0-15.55 12.95-28.5 27.2-28.5m476.69 0c15.55 0 27.21 12.95 27.21 28.5 0 15.54-12.96 28.5-27.21 28.5-15.54 0-27.2-12.96-27.2-28.5 0-15.55 11.66-28.5 27.2-28.5m-238.34 0c15.54 0 27.2 12.95 27.2 28.5 0 15.54-12.95 28.5-27.2 28.5-15.55 0-27.21-12.96-27.21-28.5 0-15.55 11.66-28.5 27.21-28.5m476.69 0c15.55 0 27.21 12.95 27.21 28.5 0 15.54-12.96 28.5-27.21 28.5-15.54 0-27.2-12.96-27.2-28.5 0-15.55 11.66-28.5 27.2-28.5m238.35 0c15.55 0 27.2 12.95 27.2 28.5 0 15.54-12.95 28.5-27.2 28.5-15.54 0-27.2-12.96-27.2-28.5 0-15.55 11.66-28.5 27.2-28.5m-948.21-227.99c15.55 0 27.2 12.96 27.2 28.5 0 15.55-12.95 28.5-27.2 28.5-15.54 0-27.2-12.95-27.2-28.5-1.3-15.54 11.66-28.5 27.2-28.5"/><ellipse cx="7603.14" cy="3841.49" fill="#219ebc" rx="27.203" ry="28.498"/><path fill="#219ebc" d="M7841.49 3812.99c15.55 0 27.2 12.96 27.2 28.5 0 15.55-12.95 28.5-27.2 28.5-15.54 0-27.2-12.95-27.2-28.5 0-15.54 11.66-28.5 27.2-28.5"/><ellipse cx="7127.74" cy="3841.49" fill="#219ebc" rx="27.203" ry="28.498"/><ellipse cx="8318.19" cy="3841.49" fill="#219ebc" rx="27.203" ry="28.498"/><path fill="#219ebc" d="M8079.84 3812.99c15.54 0 27.2 12.96 27.2 28.5 0 15.55-12.95 28.5-27.2 28.5-15.54 0-27.2-12.95-27.2-28.5 0-15.54 11.66-28.5 27.2-28.5m242.23-227.98c15.55 0 27.21 12.95 27.21 28.5 0 15.54-12.96 28.49-27.21 28.49-15.54 0-27.2-12.95-27.2-28.49 0-15.55 11.66-28.5 27.2-28.5m-952.09 0c15.54 0 27.2 12.95 27.2 28.5 0 15.54-12.95 28.49-27.2 28.49-15.55 0-27.21-12.95-27.21-28.49-1.29-15.55 11.66-28.5 27.21-28.5m-476.7 0c15.54 0 27.2 12.95 27.2 28.5 0 15.54-12.95 28.49-27.2 28.49-15.55 0-27.2-12.95-27.2-28.49-1.3-15.55 11.65-28.5 27.2-28.5m713.75 0c15.54 0 27.2 12.95 27.2 28.5 0 15.54-12.95 28.49-27.2 28.49-15.55 0-27.2-12.95-27.2-28.49 0-15.55 12.95-28.5 27.2-28.5"/><ellipse cx="7845.38" cy="3613.51" fill="#219ebc" rx="27.203" ry="28.498"/><path fill="#219ebc" d="M8083.73 3585.01c15.54 0 27.2 12.95 27.2 28.5 0 15.54-12.95 28.49-27.2 28.49-15.55 0-27.21-12.95-27.21-28.49 0-15.55 11.66-28.5 27.21-28.5m-952.1 0c15.54 0 27.2 12.95 27.2 28.5 0 15.54-12.95 28.49-27.2 28.49-15.55 0-27.2-12.95-27.2-28.49-1.3-15.55 11.65-28.5 27.2-28.5m1194.33-227.99c15.54 0 27.2 12.96 27.2 28.5 0 15.55-12.95 28.5-27.2 28.5-15.54 0-27.2-12.95-27.2-28.5 0-15.54 11.66-28.5 27.2-28.5m-1190.45 0c15.55 0 27.21 12.96 27.21 28.5 0 15.55-12.96 28.5-27.21 28.5-15.54 0-27.2-12.95-27.2-28.5-1.29-15.54 11.66-28.5 27.2-28.5"/><ellipse cx="8087.61" cy="3384.22" fill="#219ebc" rx="27.203" ry="28.498"/><path fill="#219ebc" d="M7612.21 3357.02c15.55 0 27.2 12.96 27.2 28.5 0 15.55-12.95 28.5-27.2 28.5-15.54 0-27.2-12.95-27.2-28.5-1.3-15.54 11.66-28.5 27.2-28.5m237.05 0c15.55 0 27.21 12.96 27.21 28.5 0 15.55-12.96 28.5-27.21 28.5-15.54 0-27.2-12.95-27.2-28.5 0-15.54 12.96-28.5 27.2-28.5m-475.4 0c15.55 0 27.2 12.96 27.2 28.5 0 15.55-12.95 28.5-27.2 28.5-15.54 0-27.2-12.95-27.2-28.5-1.3-15.54 11.66-28.5 27.2-28.5m-715.04 0c15.54 0 27.2 12.96 27.2 28.5 0 15.55-12.95 28.5-27.2 28.5-15.55 0-27.21-12.95-27.21-28.5 0-15.54 11.66-28.5 27.21-28.5"/><ellipse cx="6897.17" cy="3384.22" fill="#219ebc" rx="27.203" ry="28.498"/><path fill="#219ebc" d="M8091.5 3184.74c-15.55 0-27.2-12.96-27.2-28.5s12.95-28.5 27.2-28.5c15.54 0 27.2 12.96 27.2 28.5 1.3 15.54-11.66 28.5-27.2 28.5m238.35 0c-15.55 0-27.21-12.96-27.21-28.5s12.96-28.5 27.21-28.5c15.54 0 27.2 12.96 27.2 28.5 1.29 15.54-11.66 28.5-27.2 28.5m-1667.15 0c-15.54 0-27.2-12.96-27.2-28.5s12.95-28.5 27.2-28.5c15.55 0 27.21 12.96 27.21 28.5s-11.66 28.5-27.21 28.5m715.05 0c-15.55 0-27.2-12.96-27.2-28.5s12.95-28.5 27.2-28.5c15.54 0 27.2 12.96 27.2 28.5s-11.66 28.5-27.2 28.5m-238.35 0c-15.54 0-27.2-12.96-27.2-28.5s12.95-28.5 27.2-28.5c15.54 0 27.2 12.96 27.2 28.5s-11.66 28.5-27.2 28.5m-238.35 0c-15.54 0-27.2-12.96-27.2-28.5s12.95-28.5 27.2-28.5c15.55 0 27.21 12.96 27.21 28.5s-11.66 28.5-27.21 28.5m952.1 0c-15.55 0-27.2-12.96-27.2-28.5s12.95-28.5 27.2-28.5c15.54 0 27.2 12.96 27.2 28.5 1.3 15.54-11.66 28.5-27.2 28.5m-1428.8 0c-15.54 0-27.2-12.96-27.2-28.5s12.96-28.5 27.2-28.5c15.55 0 27.21 12.96 27.21 28.5 1.29 15.54-11.66 28.5-27.21 28.5m1191.75 0c-15.55 0-27.21-12.96-27.21-28.5s12.96-28.5 27.21-28.5c15.54 0 27.2 12.96 27.2 28.5s-12.95 28.5-27.2 28.5"/></svg>